/* XPM */
static char *result[] = {
/* columns rows colors chars-per-pixel */
"64 64 71 1 ",
"  c gray30",
". c gray31",
"X c #494949",
"o c #464646",
"O c gray25",
"+ c gray20",
"@ c gray14",
"# c #0E0E0E",
"$ c #0C0C0C",
"% c gray5",
"& c #181818",
"* c #2A2A2A",
"= c gray18",
"- c gray21",
"; c gray24",
": c #444444",
"> c #484848",
", c #4B4B4B",
"< c gray32",
"1 c #505050",
"2 c gray28",
"3 c gray27",
"4 c #2D2D2D",
"5 c #272727",
"6 c #131313",
"7 c gray11",
"8 c #2C2C2C",
"9 c #343434",
"0 c #414141",
"q c gray29",
"w c #4E4E4E",
"e c #1D1D1D",
"r c #151515",
"t c #434343",
"y c #4C4C4C",
"u c #3A3A3A",
"i c gray19",
"p c #202020",
"a c gray6",
"s c gray13",
"d c #313131",
"f c #373737",
"g c #3F3F3F",
"h c #393939",
"j c #2F2F2F",
"k c gray17",
"l c #1E1E1E",
"z c gray16",
"x c gray9",
"c c gray8",
"v c #3E3E3E",
"b c #161616",
"n c gray7",
"m c #252525",
"M c #353535",
"N c #3C3C3C",
"B c gray15",
"V c #101010",
"C c gray23",
"Z c #282828",
"A c gray22",
"S c #323232",
"D c #191919",
"F c #232323",
"G c #111111",
"H c #1B1B1B",
"J c gray26",
"K c gray10",
"L c gray12",
"P c #222222",
"I c #515151",
/* pixels */
" .XoO+@#$$$$$$%&*=-;:o>,.<1 X23::;+456$$$789032q.wq2:0+8e%$r8-to",
"y >:uip%$$$$$$$as*dfO3>q .wyX23:ghjkl#$$$rzjuO3>,q>ot;ikx$$ck-t3",
"3o:vi5c$$#cbrn%%rpkihgo>qy,q2otgfdkma$$$$#lzjMN033t0u98B#$$V*dgt",
"hCNfke#$nlz*Zsr##&m89u0o>XX>ot;Ad8B&$$$$$$nlZ4+fNvCfS45D$$$$m4-h",
"*kkkF6$Gz=9-+=5la%Hm8Sh;0JJONh9ikmxa$$x7%$%VKsZkjjj4zFc%$$$$c@zz",
"KHHKc%%H8MOJvf=ZKaGeZ8S-AhhfMS=*FHV$$am*7n#%ac7pmBBFHc%$$$$$%nxD",
"a#$$$$Vp=h:ootAi5H%#em*8=j=4kzmpba$$$#F8kmHx6V%#GnnV#%#ar7n$$$$$",
"slb#$$Gp=A:>,XOf8FG$a&F5ZzzZBFHc%$$$$$rZ4kZ@FsHba$$a6rxD5*7$$$ax",
"ii8B6%a74Mt,1 ogS*x%$$%Vcc6nV%arHeeKa$$bkddj4=iS9Sj8Z5*k48s$$Gsk",
"CC94LG%D*+OXw,otf4e$$$$acbx&Hp5z*k8kLa$aBjA-M999M9Siiid+d8e$#Dzj",
"::v9ZD%65d;o2o::Cjs$$$V7Zk4iddS9fuuMkD$#p4hO;;;;;NCuuCNh=z6$rFjA",
"2oJA8l%V@=ut33:0-4e$$$6Fj+9MAu;OJ:tN8p$%L=ut:::3oo:tJtvMkP%%Lz9;",
"yq3C4sa%ez+CgvAS8Pa$$$bBM;Jt2,yXo3:g=@%%L=hO:3>,1.q23Jfj@6$65ju:",
"1 oC4Fa$6P8iSd4zeG$$$$&5M0o>y1wq23tv4F%%ek+A;J>,1.q23O+8&##Dk+g>",
"yq3u4Fa$$Vl@mPDn$$$$$%K*f032, ,20gC-k7$$nHm89ut>,,>otCj@a$al4At2",
"22th4sa$$$%aV%$$$$$$$%ekhJ3o>20NAMd4PG$$%axP=9NJ2>o:v-kH%$#L4ht3",
"3:OMk7#$$$$$$%##$$$$$$P8CttJNASj8zPK#$$$$$%6Pk+fhhf-d8LV$$$DkSvt",
"O0CSZb$$$$$%GbKKx6a$$$P8fCCA+j4*Feca%#%#6G$%bl5k==kz@en%$$$aB89u",
"idj87#$$$$#r@Z*kZBpb$$7*4=4kBprGaV6bDHL@zmV$%a6b&&bcV#$$$$$$G758",
"m5Bpa$$$$$cP8i99i=kma$GL55PLr##cHLP@5*k84*c$$$$$%%$$$$$$$$$$$%c7",
"$$$$$$$$$#sk-vJ0vuS8H%$$$%a%$rP5zk4jiSMf+8&$$$$$%#VVGGncG%$$$$$$",
"$$$$$$$$$n5jv:XX3JA4pa$$$$$$rPz8iSM-Auvg98D$$$V6bxDKep@BmlG$$$$$",
"c7spHc%$$rk9:o w2th=sV$$$$$Gm*dMu;O0tt:J98D%$Vm****kjidS=kPa$$$$",
"5k88k56$$rk9J3Xqo0M4La%r6$%Hz=-C032o33:0+kD#$bk=iS+-Au;C+8@G$$$V",
"jMhAS4FG$am4-;0JvAj*x%nBD$cB49;3>XX>oo:gSzD%$789;vg0:::098F#$$cP",
"-;J0udZK%%HZ=+ff9i*FV%D*r$7ZiAJ>q,yq>o:;iZx$$L4MJ:oXXo:g98p#$#7z",
"v:o3Of8PV$axmz88*B76%nP*aaP*9CoXy.. X>Jh=Bc$$L4MJoqw X:vS87a$6@=",
"t2X2Jh=m6$$#bePFl&G%cHzZ%nm8M;2q 1Iwq>Of8@G$%H890oqw X:;d8Ka$xZd",
"2y.,:Cj5r%$$$#aa#%rpBz4F#cm4-v2XywwyXoN9zp%$%n5=hOoX>oJCj*x#%Hk-",
"2,wq:Cj5r%aGVaaVxP4=4jjp#cm4-vo>q,,q>:AiZK$$$#ezdfgt3:gf4Bn%#H8-",
"o2>2Ju4m6%&ssP54fhM+MfjL#6F8-v3o2>>23;+8PG$$$$GKZ4+fCC-izH#$#H4f",
"t:330A8FG%p848j+fhhhuhjL#nsk9N:3oooo0A=z&%$$$$%G7B8jS+jksn%$#D8-",
"9-u;;M*l#%Fj--hu;g0JtCjp#ae*dut:333thdzP%$G&%$$$a67Fzk5la%$$$rkd",
"k4iS-d5b$%Fj;ggJ2q>o:CjP#%&5=fO:::t;+8@&$%LZc$$$$%G6xDrV%$$$$nZ*",
"Kl@Zkkl%$%P4NJ32 .,>3;i5#$GpkdC0:tNM8m&%$cz*&$$$$$%%%%%$$$$$$%cb",
"#V6&LpG$$$Lk9hv0:3:::OSkV$%x*4-Cg;M=B7a$%e8kb$$$GxxcnGann%$$$$$$",
"Va%$$$$$$$GHm*4=ji9f;OA4&$$%F*=SMd8BbV$#&Z8*G$$VzkkkZ5zk*r$$$$%#",
"slbG$$$$$$$%nbK7p@*=Sf-=pa$$r@k84kPb#%a6B44z#$$DkjS+SSi4zc$$$axl",
"=85p6#$$GG###%%#aGxlZ84kLa$$$GLm@7a$%GKB=+=m%$ap4Mvgv;AjsV$$cP*4",
"-9=*l6$$LmlHDxcn#$%#bLFpG$$$$$%nG%$%6KZ=+-=P#$GF=ft2>:hjea$%PkdM",
"tOAdze#$D*=88*z5sx#$$$$$$$$$$$$$$$VbP8SMhfjsa$GF=-tX ohje#%c*iNJ",
">og-kPa$xZMfM9SikBx%$$$$%%%$$$$$$a&P=+fu;AjsV$#l8+g323uil#%xkSg3",
"w,:u4mV$DZ-g0OvCM=@V$$#nxHpser%$$6F=-hvJOhi@n%$G54+Auu94pa%rzi;o",
" q:N4mV$7zf0223Jhi@n$#xeB*88k5b$$n@iANJ:0CSzra$$bFk==48ke#$6BjC3",
"o3JA8s#$lkh:  >t-=LGGHB8dMhhS4Zx$#p8f;3o3vfdPc%$$%anccnV$$$apk-g",
"vgN+zK%%p=C3  2g+*KaH@4SugJJN+8F$$Hk-N322tu-87#$$$$%aaa#%$$$DBif",
"jj=*7a$%BdO3>>0f8@nrm8MNt333tNj*G$bzMu3,q2vf=l#$$%cKlLLlDca$VDB8",
"mBF7#$$%*+O:3Jhd5HV7*dCt2>23:gdkr$c5+h3wy>;-k&%$%D5*kkkzBP&V$aDp",
"Va%$$$$$L*i9f945KarFjAt2, q23gdkr%c@Sho<w>C+Fn%$Hz=+---9i4*mc%%#",
"$$%%%$$$abpmzZFHa%DZ+N3> 1yX3Niz6%cFSho. ohdea$$F8MCgOg;hMi8mr$$",
"ab777HbG%$%#GGa#$%7k-O32, q>0A4FG%rmShoqX3fj&#$a*i;to2>ot0CS*H$$",
"lz88zz*ZLHDxna$$$%L8fJ3o>X>3C+zl#%&z+C3>23AjD%$GkSg:2,yXotuiZr$$",
"kSNNf9dij=8k5Pc$$$lk-v::3tvhS8p6$as4-g3o3:Cil#$#*jCt>ywqog+k7a$V",
"jhJt0v;ChA-9i8mb$$xzif;gNh9i*Fr%%rzjuJ::::NS@G$$skMN:>q>:CjZc%$D",
"9O:32X,,23t0NMkP$$#H*4idi4zm76$$KB8dANJ::JhjBn$$np8dhvJt0-*L#$as",
"MO:3>,11,>3:Ofks$$$%H@kk5Fl&#$$%P@*k4duO0Ndkl#$$%cP*j+fuN+5&$$V@",
"j-NO:>wwq23thjBc$$$$$%V66G%$$$$$$$#cpZ4SS45H%$$$$%nKPBk888Fa$$#l",
"Bkd9h;J32o:vS*K%$$$%aGrD7ee7K&cG#%$$armkzPc%$%aG66nnbDeLsP7%$$$G",
"6KPzjd+-CgvMzla$$%n&LF5zkkkkzZmPHr%$$$V&6%$%cKpFmmFL&6a##%$$$$$$",
"$%GbpzdiS--jPr%$%rLm*4jiSS+Sdj48z@DV$$$$$$%rP5k4==4kBLn%$$$$$$$$",
"eeKra$nL*k85c%%cm*4i9fuNgOOOv;uf9ikzK#$$$%l*=S-AuhA-d4mb$$$$$%n&",
"48z5lc$#&LsK#$xB8i-uvOt:o22o3tJ0vhd85b$$$rz=fCOJ:t0gC98B#$$$#&@z",
"vvC-=Zc$$%a%$am8Su0t:3o>q,qX2o:::0f=*7$$$p4-0:o2XX23:vSkD$$$Lk9u",
"223JAjL$$$$$$#FkiA0:332Xyw ,>23::0A=*7$$%FjA:32q  Xo:098l#$a*iv:"
};
