/* XPM */
static char *result[] = {
/* columns rows colors chars-per-pixel */
"64 64 148 2 ",
"   c #020202",
".  c #090604",
"X  c #0E0905",
"o  c #0B0B0B",
"O  c #130C06",
"+  c #190F07",
"@  c #110D0B",
"#  c #171005",
"$  c #1B1206",
"%  c #15110B",
"&  c #1D150C",
"*  c #141414",
"=  c #1B1B1B",
"-  c #22150A",
";  c #23190B",
":  c #2C1D0B",
">  c #2F210F",
",  c #372407",
"<  c #35220B",
"1  c #3C250C",
"2  c #3F280C",
"3  c #2B2114",
"4  c #24211E",
"5  c #342514",
"6  c #33291B",
"7  c #3E2D1A",
"8  c #242324",
"9  c #2A2522",
"0  c #2B2B2B",
"q  c #35312D",
"w  c #3B342A",
"e  c #333333",
"r  c #3C3C3C",
"t  c #40270C",
"y  c #432A0C",
"u  c #492E0E",
"i  c #4C320F",
"p  c #53360F",
"a  c #57380D",
"s  c #5C3B0E",
"d  c #422A11",
"f  c #412F1B",
"g  c #4D3314",
"h  c #41301B",
"j  c #49341E",
"k  c #543611",
"l  c #5D3C12",
"z  c #613F0E",
"x  c #623E12",
"c  c #523D21",
"v  c #654307",
"b  c #65420C",
"n  c #6B440F",
"m  c #6E480F",
"M  c #654111",
"N  c #6A4411",
"B  c #6E4811",
"V  c #714911",
"C  c #634B29",
"Z  c #6A4F2A",
"A  c #6F5024",
"S  c #6B512A",
"D  c #775E34",
"F  c #424242",
"G  c #4E4D4D",
"H  c #544C42",
"J  c #514F4D",
"K  c #545454",
"L  c #5A5A5A",
"P  c #6D5C44",
"I  c #6E5E49",
"U  c #665C53",
"Y  c #69615A",
"T  c #726657",
"R  c #636363",
"E  c #6A6865",
"W  c #716F6C",
"Q  c #797165",
"!  c #72716E",
"~  c #7D7D7E",
"^  c #A76E0A",
"/  c #BF7E0F",
"(  c #896739",
")  c #8D6A39",
"_  c #926D3A",
"`  c #96703A",
"'  c #9D763B",
"]  c #9F793F",
"[  c #997E57",
"{  c #A07941",
"}  c #C6830C",
"|  c #D58C0E",
" . c #E09404",
".. c #E69903",
"X. c #E0970F",
"o. c #CC8C2A",
"O. c #D89525",
"+. c #DF9925",
"@. c #D79D34",
"#. c #AE8143",
"$. c #BA8C49",
"%. c #CF9745",
"&. c #C4934B",
"*. c #D09941",
"=. c #D19E52",
"-. c #D8A04F",
";. c #D4A051",
":. c #DCA555",
">. c #D4A65F",
",. c #E0A756",
"<. c #E4AB57",
"1. c #EDAE50",
"2. c #E5AC59",
"3. c #E9AC59",
"4. c #EFB257",
"5. c #EFB25A",
"6. c #F5B75A",
"7. c #F5B85B",
"8. c #E1B570",
"9. c #838384",
"0. c #8C8C8C",
"q. c #959594",
"w. c #979798",
"e. c #9B9B9B",
"r. c #A09E9D",
"t. c #BBA480",
"y. c #A2A09F",
"u. c #A4A4A4",
"i. c #A8A6A4",
"p. c #A8A7A8",
"a. c #ACACAC",
"s. c #B3B3B3",
"d. c #BBBBBB",
"f. c #DCBE8F",
"g. c #C6B79F",
"h. c #D9C6A6",
"j. c #C4C4C4",
"k. c #CBCBCB",
"l. c #D0CFD0",
"z. c #D4D4D4",
"x. c #DCDCDC",
"c. c #E4E4E4",
"v. c #E8E7E8",
"b. c #ECECEC",
"n. c #F0EFF0",
"m. c #EFF1F0",
"M. c #F4F4F4",
"N. c #FEFEFE",
/* pixels */
"N.c.N.b.N.M.N.c.N.b.N.v.N.M.N.v.N.M.N.M.N.c.N.b.N.M.M.N.b.m.N.N.M.N.b.N.v.M.M.N.b.N.c.M.M.N.b.N.b.N.b.N.v.N.b.N.v.N.b.N.b.N.c.N.",
"c.k.c.z.c.z.c.k.c.z.c.z.c.z.c.z.c.z.c.x.x.k.c.z.c.x.x.c.z.z.c.x.x.c.z.x.z.x.x.c.z.v.l.x.x.v.z.c.z.c.z.c.z.c.z.c.z.c.z.c.z.c.k.c.",
"N.x.N.c.N.c.N.x.N.c.M.c.N.v.M.c.M.v.N.b.b.x.M.v.N.b.b.N.v.v.N.b.M.M.c.M.c.b.b.N.v.M.x.m.m.N.c.M.c.M.c.N.c.N.c.M.x.N.c.N.c.M.x.M.",
"M.x.M.v.M.v.M.c.M.c.N.c.M.v.M.c.N.c.M.M.M.x.M.c.M.b.b.M.c.c.M.b.b.N.c.M.c.b.b.M.v.M.x.M.m.M.c.N.c.M.c.M.c.M.c.N.c.M.v.M.c.M.x.N.",
"N.c.N.b.N.M.N.c.N.v.N.b.N.b.N.b.N.M.N.M.M.c.N.b.N.M.M.N.b.M.N.N.M.N.m.M.b.M.M.N.b.N.c.M.M.N.m.N.M.N.v.N.b.N.b.N.v.N.b.N.b.N.c.N.",
"M.z.M.x.b.c.b.x.M.c.b.x.m.c.b.x.b.c.b.v.v.z.M.x.M.c.c.b.x.x.b.c.v.b.c.v.c.c.c.M.x.b.x.v.v.m.x.m.x.b.x.M.x.M.x.M.x.b.c.M.c.b.z.M.",
"N.c.N.b.N.M.N.c.N.v.N.b.N.b.N.b.N.M.N.M.N.c.N.b.N.M.M.N.b.M.N.N.N.N.b.N.b.M.M.N.b.N.c.N.M.N.b.N.b.N.b.N.v.N.b.N.c.N.M.N.b.N.x.N.",
"c.k.c.z.c.z.c.k.c.z.c.z.c.z.c.z.c.z.c.x.x.k.c.z.c.x.x.c.z.k.0 0 0 0 0 0 0 0 0 0 s.c.l.x.x.c.z.c.z.c.z.c.z.c.z.c.z.c.z.c.z.c.k.c.",
"N.c.N.v.N.b.N.c.N.v.N.c.N.v.M.b.N.v.N.M.M.x.N.c.N.m.m.N.b.x.                    d.N.c.M.M.N.b.N.c.N.c.N.c.N.c.N.c.N.b.N.v.N.x.N.",
"b.z.m.c.b.x.b.x.M.x.m.x.b.c.b.x.b.c.b.v.v.z.m.x.m.v.c.m.r F y.e.e.u.w.e.w.e.e.u.K r e r r c r r w.M.x.M.x.M.x.M.x.b.x.M.c.b.z.b.",
"N.c.N.b.N.M.N.v.N.v.N.b.N.n.N.b.N.M.N.N.N.c.N.b.N.M.M.N.. o x.x.z.x.l.x.l.x.x.x.e               9.N.b.N.b.N.b.N.c.N.b.N.b.N.c.N.",
"v.z.v.x.b.x.b.z.b.x.b.x.b.x.v.x.b.x.v.c.c.z.v.x.b.l.L L 9.9.l.k.k.z.e.u.e.u.j.l.[ ) ( { _ ` ) ` I L s.v.x.b.x.b.z.b.x.b.x.v.z.b.",
"N.c.N.b.N.M.N.c.N.b.N.b.N.M.N.b.N.M.N.M.M.c.N.b.N.z.*   l.l.x.z.z.x.w.q.0.e.k.x.8.6.,.6.1.6.<.6.Z   i.N.b.N.b.N.v.N.M.N.b.N.c.N.",
"b.z.b.x.b.x.b.z.b.x.b.x.b.x.v.x.b.x.b.c.c.z.b.x.b.j.*   j.j.z.k.k.z.s.d.F G >.f.>.2.=.:.:.<.:.<.C   e.b.x.b.x.b.x.b.x.b.x.b.z.b.",
"N.c.N.M.N.n.N.c.N.b.N.v.N.M.N.b.N.M.N.N.N.c.N.b.N.z.*   k.l.x.z.z.x.c.M.  X &.7.2.6.:.5.6.6.<.6.Z   p.N.b.N.b.N.c.N.b.N.b.N.c.N.",
"n.z.m.x.b.c.M.z.M.x.M.x.b.x.b.x.b.c.b.v.c.z.b.x.m.j.*   j.j.z.k.k.z.z.c.0.w.g.h.%.+.o.O.A c #.3.C   e.m.x.b.x.M.z.M.c.m.x.M.z.b.",
"N.c.N.b.N.b.N.c.N.b.N.b.N.M.N.b.N.M.N.M.N.c.N.b.N.z.*   k.l.x.x.x.x.c.m.c.b.x.x.@...|  .,   ' 7.Z   i.N.b.N.b.N.c.N.b.N.b.N.c.N.",
"M.z.M.x.M.c.b.x.M.x.n.x.b.c.b.x.b.c.M.v.c.z.M.x.m.j.*   u.i.l.k.k.l.l.z.l.z.l.z.D v s v Q 9.P S T 9.j.m.x.M.x.M.x.M.c.M.x.M.z.b.",
"N.c.N.M.N.M.N.c.N.b.N.v.N.M.N.b.N.M.N.M.N.c.N.b.N.z.*   0.w.x.z.z.x.l.x.l.z.z.x.e       d.N.G   9.N.v.N.v.N.b.N.c.N.M.N.b.N.c.N.",
"b.z.b.x.b.x.M.z.b.x.m.x.b.x.v.x.b.x.b.c.c.z.b.x.m.j.*   G K d.s.k.l.a.s.j.k.9.~ R R L R k.m.0.R i.b.x.b.x.M.x.b.z.b.x.b.x.b.z.b.",
"N.c.N.b.N.M.N.c.N.v.N.v.N.b.N.b.N.b.N.M.M.c.N.b.M.z.*     o w.e.k.x.w.q.z.k.0   d.N.c.M.M.N.b.N.m.N.v.N.b.N.v.N.c.N.M.N.M.N.c.N.",
"c.k.c.z.c.z.c.k.c.z.c.z.c.z.x.z.c.z.c.x.x.k.c.j.#.! 0 3 : 3 G K e.a.Y U u.u.=   i.c.k.x.x.c.z.c.z.c.z.c.z.c.z.c.k.c.z.c.z.c.j.c.",
"N.c.N.b.N.M.N.c.N.b.N.v.N.M.N.b.N.M.N.N.M.c.N.k.  O x B M x   * 9.e.j 2 q.0.=   d.N.v.M.N.N.M.N.b.N.b.N.v.N.b.N.v.N.m.N.b.N.c.N.",
"v.z.b.x.v.x.b.z.b.x.b.x.v.x.c.x.v.x.b.c.c.z.9.! : 5 x N x x > 5 G K g i U U 3 # E 0.k.v.c.v.x.v.x.v.x.v.x.b.x.b.z.b.x.b.x.v.z.b.",
"N.c.N.b.N.M.N.c.N.b.N.b.N.M.N.b.N.M.N.N.M.c.  O m n n B N N N x X   l B t t y y O   k.M.N.N.M.N.b.N.b.N.b.N.b.N.v.N.M.N.b.N.c.N.",
"b.z.b.x.v.x.b.z.b.x.v.x.b.x.c.x.b.x.v.c.c.z.  O N M M N x x M x - O y u u u t t X   d.v.c.b.x.b.x.b.x.b.x.b.x.b.z.b.x.b.x.b.z.b.",
"N.c.N.b.N.M.N.c.N.v.N.b.N.M.N.m.N.b.N.M.M.c.  O B N N B N M N N y y .   N N u y X   k.M.M.N.m.N.b.N.b.N.b.N.b.N.v.N.M.N.b.N.c.N.",
"v.k.c.x.c.x.v.z.v.x.c.z.v.z.c.z.c.x.c.c.x.k.  O M l M M l x x l y 2 .   l l d d @   d.c.x.v.x.c.z.v.z.v.z.v.x.c.z.v.z.v.x.c.k.c.",
"N.c.N.b.N.M.N.c.N.b.N.v.N.M.N.v.N.M.N.M.N.x.  O B N N V n M V N y y X   N N u y X   k.M.M.N.n.N.b.N.b.N.v.N.b.N.v.N.b.N.b.N.c.N.",
"M.z.M.x.b.c.m.x.b.c.M.x.b.c.b.c.b.c.M.v.v.z.  O N M x N x x N x y y .   M x d 2 X   j.v.v.n.c.m.c.b.x.M.x.M.c.b.x.b.c.M.x.M.z.M.",
"N.c.N.b.N.M.N.c.N.b.N.v.N.M.N.b.N.M.N.M.N.c.  O B N B B n N B x i y .   M N i y O   k.M.N.N.M.N.b.N.b.N.b.N.b.N.v.N.M.N.v.N.c.N.",
"M.x.M.c.M.c.M.x.M.c.M.c.M.c.b.c.M.c.M.c.d.i.# ; N M x B x x N x y y .   M M y y O   j.m.v.M.c.M.c.M.c.M.c.M.c.M.x.M.c.M.c.M.x.M.",
"N.x.N.v.N.v.N.c.N.c.M.c.M.b.M.c.M.b.M.j.o . N M N N N B x x B x y y .   M M d y O   j.M.b.N.v.N.c.M.c.M.c.M.v.M.c.N.v.N.c.M.x.N.",
"x.j.c.z.c.z.x.k.x.z.c.z.c.z.x.z.c.z.c.a.o . M l x x x x x l x l 1 < O O l M d d X   s.x.x.c.z.c.z.c.z.c.z.c.z.c.k.c.z.c.z.c.j.c.",
"N.c.N.b.N.b.N.c.N.b.N.b.N.M.N.b.N.M.N.k.o   N N V V B V N x y 1 .   s B N N u y .   k.M.M.N.b.N.b.N.v.N.b.N.b.N.c.N.M.N.b.N.c.N.",
"v.z.v.x.b.x.b.z.v.x.v.x.v.x.v.x.b.x.b.s.o   N x N x x N x x t < .   s M k l < < q r j.c.c.v.x.b.x.v.x.b.x.v.x.b.z.b.x.v.x.v.z.v.",
"N.c.N.b.N.M.N.v.N.b.N.b.N.M.N.v.N.n.N.k.. . B N V n V V x n y 1 .   l B y t .   d.N.c.N.N.N.b.N.b.N.b.N.b.N.b.N.v.N.M.N.b.N.c.N.",
"M.x.N.c.M.v.M.x.M.c.M.c.M.v.M.c.M.x.k.r.& + N M n x N n x k < < # O l N t 2 .   s.M.x.M.b.M.c.N.c.M.c.M.c.M.c.M.x.M.c.M.c.M.x.M.",
"M.x.M.c.M.c.M.x.M.c.M.c.M.c.M.c.M.a.X & x x V x n N n N 2 2   X s N x N t t X   s.M.x.m.b.M.c.M.c.M.c.M.c.M.c.M.c.M.c.M.c.M.x.M.",
"M.z.m.c.M.c.M.z.M.c.M.x.n.c.b.c.M.p.  + z x N x n x x N 2 2   . a N N x 1 t .   s.M.x.b.v.M.x.M.c.M.x.M.c.M.c.M.x.M.c.M.c.M.z.M.",
"N.x.N.v.N.b.N.c.N.c.N.c.N.b.M.b.N.a.  + M z B M n z u t t 1   . s B y t   @ k.N.v.N.x.M.M.N.b.N.v.N.v.N.c.N.v.N.c.N.b.N.v.N.x.N.",
"M.z.M.x.b.c.M.z.m.x.M.x.M.c.b.c.m.p.  O x x N x z s y t < < O + k x 2 < 8 0 j.n.x.M.x.v.v.M.c.b.x.n.x.M.x.M.x.m.x.b.c.M.x.M.z.b.",
"N.c.N.b.N.M.N.c.N.b.N.b.N.n.N.b.N.s.  # n z B z y y y y   . N b u y .   M.M.M.N.v.N.c.N.M.N.M.N.m.N.v.N.b.N.b.N.v.N.b.N.b.N.c.N.",
"M.x.N.c.M.c.N.x.N.c.M.c.M.v.M.z.z.w.  O M x x l y t , < O + z x 1 < 4 8 v.b.n.M.c.N.x.b.M.M.c.M.c.M.c.M.c.N.c.N.x.N.v.M.v.M.x.M.",
"M.x.N.v.M.c.M.c.M.c.N.c.M.v.M.q.= @   O b x y y y < X . l l y t X . d.x.c.n.b.M.c.M.x.M.b.M.c.M.c.M.c.N.c.M.c.M.c.M.c.N.c.M.x.N.",
"N.c.N.b.N.M.N.c.N.b.N.v.N.n.N.w.      + N x d 2 y < .   M M d 2 .   z.M.b.M.M.N.b.N.c.N.N.N.M.N.m.N.v.N.b.N.n.N.c.N.m.N.b.N.c.N.",
"b.z.b.x.v.c.b.z.b.x.v.x.b.a.X 3 b d   + x x t 2 y <     l z t < .   j.c.x.c.c.b.x.b.z.c.c.b.x.b.x.b.x.b.x.v.x.b.z.b.x.b.x.v.k.b.",
"v.z.b.x.b.x.b.z.v.x.b.x.c.i.  : M u   O z l t < y 5 @ X l l d 1 .   j.c.x.x.c.b.x.b.z.c.c.v.x.b.x.v.x.b.x.b.x.v.x.b.x.b.x.v.z.b.",
"M.x.M.c.M.v.M.x.M.c.M.u.e w k i u <   X d y t < O 9 a.j.% - / ^ #   k.b.c.b.b.M.c.M.x.b.n.M.v.M.c.M.c.M.x.M.c.M.c.M.v.M.c.M.x.M.",
"M.x.M.c.M.v.M.x.M.c.M.w.  # M p 1 :   X 2 2 t <   9 x.M.. @ X.} $   d.x.c.b.b.M.c.M.x.b.b.M.c.M.c.M.c.M.c.N.c.M.x.M.c.M.c.M.x.M.",
"M.x.N.c.M.v.N.x.M.c.M.q.  O u : . .   X 2 < y <   8 x.M.. o 1.*.;   = 8 c.b.b.M.c.M.x.M.n.M.c.M.c.M.c.M.c.M.c.M.c.M.v.M.c.M.x.M.",
"N.c.N.b.N.m.N.v.N.b.N.e.  O t :       X y 2 y <   0 c.N.o @ 7.;.&       M.M.M.N.b.N.c.M.N.N.M.N.b.N.b.N.b.N.b.N.c.N.M.N.b.N.c.N.",
"b.z.b.c.b.c.b.z.b.x.m.0.    . J k.q.  X t 5 o 8 k.a.e 8 $.$.3.:.&.&.$.$.8 0 j.m.x.b.x.c.c.M.x.b.x.n.x.b.x.m.x.n.x.b.x.b.x.b.z.m.",
"N.c.N.b.N.b.N.c.N.b.N.w.      L N.s.  X y 5   8 N.z.*   2.3.7.5.6.7.2.7.  % k.N.b.N.c.N.M.N.b.N.b.N.b.N.b.N.b.N.c.N.n.N.b.N.c.N.",
"M.z.M.c.M.c.M.x.M.x.M.k.s.u.a.d.M.p.  . 2 <   0 M.x.s.s.7 7 7 7 7 h 7 h ] ] H F d.M.z.v.c.M.c.b.x.M.x.M.x.b.x.b.x.M.c.M.x.M.z.M.",
"M.x.M.c.M.v.M.x.N.c.M.c.M.v.M.v.M.a.o * 1 1 o 0 M.b.b.M.* o o o o o o o ;.=.6 o d.M.x.M.M.M.c.N.v.M.c.M.c.N.c.N.c.M.c.N.c.M.x.M.",
"M.x.N.c.M.v.N.x.M.c.N.c.M.v.M.c.M.x.k.e.% O k.h.M.b.b.M.d.d.j.j.j.k.d.j.3 6 i.k.x.M.c.M.b.N.c.M.c.N.c.M.c.M.c.N.x.M.c.M.v.M.x.N.",
"N.c.N.n.N.m.N.v.N.b.N.v.N.b.N.m.N.M.N.k.o o N.b.N.M.N.N.b.m.N.N.M.N.b.N.  o k.N.b.N.c.M.M.N.M.N.b.N.b.N.b.N.b.N.v.N.M.N.m.N.c.N.",
"b.z.b.x.b.x.b.z.b.x.b.x.b.x.v.x.v.x.b.x.s.u.b.x.b.c.c.b.x.x.b.c.v.b.x.c.a.s.x.v.x.b.z.c.c.b.c.b.x.v.x.b.x.b.x.b.x.b.x.b.x.b.k.b.",
"N.c.N.b.N.M.N.c.N.b.N.b.N.b.N.b.N.M.N.M.M.c.N.b.N.M.M.N.b.M.N.M.M.N.m.N.b.M.M.N.b.N.c.N.M.N.b.N.b.N.b.N.b.N.b.N.c.N.M.N.b.N.c.N.",
"v.z.v.x.v.x.b.z.v.x.v.x.b.x.v.x.v.x.b.c.c.z.v.x.b.c.c.v.x.x.v.c.c.v.x.c.x.c.x.v.x.v.z.c.c.v.x.v.x.v.x.v.x.v.x.v.z.b.x.v.x.v.l.b.",
"N.x.N.v.N.v.N.x.N.c.N.v.N.v.M.v.N.v.N.m.M.x.N.v.N.b.b.N.v.v.N.M.M.N.v.M.c.M.b.N.c.N.x.M.M.N.v.N.c.N.c.N.c.N.v.N.c.N.v.N.v.N.x.M.",
"b.z.b.x.b.c.m.z.b.x.b.x.m.x.b.x.b.x.b.c.c.z.b.x.b.c.c.b.x.x.b.c.c.b.x.v.c.c.c.b.x.b.z.c.c.m.x.b.x.b.x.b.x.b.x.b.z.b.x.b.x.b.z.b.",
"N.c.N.m.N.M.N.c.N.b.N.b.N.b.N.b.N.M.N.N.M.c.N.b.N.M.M.N.b.M.N.N.M.N.m.M.b.M.M.N.b.N.v.N.M.N.M.N.b.N.b.N.b.N.b.N.v.N.M.N.m.N.c.N."
};
