/* XPM */
static char *result[] = {
/* columns rows colors chars-per-pixel */
"64 64 209 2 ",
"   c #030102",
".  c #0A0605",
"X  c #0C0807",
"o  c #0B0B0A",
"O  c #070708",
"+  c #120D0A",
"@  c #140A07",
"#  c #0E130B",
"$  c #13130D",
"%  c #1C120C",
"&  c #141C0E",
"*  c #1D1611",
"=  c #1C1B12",
"-  c #1C1C1C",
";  c #151713",
":  c #21140F",
">  c #211512",
",  c #231A13",
"<  c #281E16",
"1  c #2A1E18",
"2  c #301F1A",
"3  c #1B2412",
"4  c #1D2814",
"5  c #2D2219",
"6  c #262718",
"7  c #342415",
"8  c #32251A",
"9  c #3A231B",
"0  c #36291C",
"q  c #3A2B1E",
"w  c #3C2917",
"e  c #263516",
"r  c #263519",
"t  c #2B3B1B",
"y  c #2A3619",
"u  c #232222",
"i  c #2C2C2C",
"p  c #2D2923",
"a  c #3C2E21",
"s  c #352E29",
"d  c #2F3D20",
"f  c #3F3023",
"g  c #33362D",
"h  c #2F2F31",
"j  c #353535",
"k  c #3A393A",
"l  c #383732",
"z  c #412C1E",
"x  c #5F3E18",
"c  c #712E0E",
"v  c #782F0D",
"b  c #6E2F12",
"n  c #712E11",
"m  c #653E17",
"M  c #793616",
"N  c #77310D",
"B  c #432D23",
"V  c #4B2D24",
"C  c #423223",
"Z  c #4B3324",
"A  c #563A2B",
"S  c #5C3D30",
"D  c #663E2C",
"F  c #653D28",
"G  c #2E411D",
"H  c #32441E",
"J  c #38511E",
"K  c #344922",
"L  c #3B5224",
"P  c #3E433B",
"I  c #6D4318",
"U  c #4B5122",
"Y  c #425A28",
"T  c #44413F",
"R  c #545E33",
"E  c #55542F",
"W  c #6C432A",
"Q  c #64412B",
"!  c #744625",
"~  c #734628",
"^  c #7B4B2A",
"/  c #794725",
"(  c #634433",
")  c #694835",
"_  c #7A4C36",
"`  c #724E3C",
"'  c #714933",
"]  c #4F702A",
"[  c #57663A",
"{  c #6F633B",
"}  c #3E3E40",
"|  c #454545",
" . c #4C4B4C",
".. c #464748",
"X. c #504E4C",
"o. c #535352",
"O. c #5D5C5C",
"+. c #595856",
"@. c #705644",
"#. c #5F6A42",
"$. c #797858",
"%. c #706E4E",
"&. c #605E60",
"*. c #6D6D6C",
"=. c gray39",
"-. c #727272",
";. c #7A7A7A",
":. c #786E66",
">. c #893610",
",. c #813E1B",
"<. c #8D431B",
"1. c #824E2E",
"2. c #83502D",
"3. c #8C552E",
"4. c #865438",
"5. c #955B31",
"6. c #A3663D",
"7. c #8B5D43",
"8. c #825A45",
"9. c #955C42",
"0. c #985C41",
"q. c #94644D",
"w. c #98684B",
"e. c #97654B",
"r. c #936550",
"t. c #9B6750",
"y. c #8C6C49",
"u. c #A56B4C",
"i. c #A36643",
"p. c #B16F4D",
"a. c #B5734B",
"s. c #A77256",
"d. c #A97556",
"f. c #AC765C",
"g. c #BA7E61",
"h. c #B57D66",
"j. c #C17A55",
"k. c #718735",
"l. c #84A034",
"z. c #C5BA37",
"x. c #92845E",
"c. c #A68159",
"v. c #9E9879",
"b. c #BA8160",
"n. c #BA9169",
"m. c #A89A6B",
"M. c #B7B06E",
"N. c #C0835D",
"B. c #D6865B",
"V. c #C0B54A",
"C. c #CD8A68",
"Z. c #C78866",
"A. c #D7936E",
"S. c #DD9571",
"D. c #C29D7B",
"F. c #E38E63",
"G. c #FE9B67",
"H. c #FC9B6A",
"J. c #F59667",
"K. c #E59B74",
"L. c #E79E78",
"P. c #E89065",
"I. c #C3A277",
"U. c #ECA379",
"Y. c #FDA173",
"T. c #F3A57C",
"R. c #FDAA7E",
"E. c #FDA67A",
"W. c #F9D14E",
"Q. c #FBD76B",
"!. c #848484",
"~. c #8B8B8B",
"^. c #918E8C",
"/. c #959494",
"(. c #9D9D9D",
"). c #989996",
"_. c #B5B48B",
"`. c #BEA785",
"'. c #A4A4A3",
"]. c #ADADAD",
"[. c #AFAFB0",
"{. c #BABAB9",
"}. c #B4B5B4",
"|. c #B2AEAB",
" X c #C3A685",
".X c #C8A483",
"XX c #D2A88A",
"oX c #FCA781",
"OX c #FBAA81",
"+X c #F1A680",
"@X c #F9BD8E",
"#X c #E6C698",
"$X c #FBDE89",
"%X c #FBE191",
"&X c #D2C0A5",
"*X c #F7DBAC",
"=X c #F7D6AD",
"-X c #FAE4B6",
";X c #FCE7AB",
":X c #C3C3C2",
">X c #CBCBCB",
",X c #D3D3D3",
"<X c #DCDCDC",
"1X c #F9E7C3",
"2X c #E0E0DD",
"3X c #E3E4E3",
"4X c #ECEDEC",
"5X c #F4F4F4",
"6X c #FFFFFF",
/* pixels */
"6X6X6X6X6X6X6X6X6X6X6X6X6X6X6X6X6X6X6X6X6X6X6X6X6X6X6X6X6X6X6X6X6X6X6X6X6X6X6X6X6X6X6X6X6X6X6X6X6X6X6X6X6X6X6X6X6X6X6X6X6X6X6X6X",
"6X6X6X6X6X6X6X6X6X6X6X6X6X6X6X6X6X6X6X6X6X6X6X6X6X6X6X6X6X6X6X6X6X6X6X6X6X6X6X6X6X6X6X6X6X6X6X6X6X6X6X6X6X6X6X6X6X6X6X6X6X6X6X6X",
"6X6X6X6X6X6X6X6X6X6X6X6X6X6X6X6X6X6X6X6X6X6X6X6X6X6X6X6X6X6X6X6X6X6X6X6X6X6X6X6X6X6X6X6X6X6X6X6X6X6X6X6X6X6X6X6X6X6X6X6X6X6X6X6X",
"6X6X6X6X6X6X6X6X6X6X6X6X6X6X6X6X6X6X6X6X6X6X6X6X6X6X6X6X6X6X6X6X6X6X6X6X6X6X6X6X6X6X6X6X6X6X6X6X6X6X6X6X6X6X6X6X6X6X6X6X6X6X6X6X",
"6X6X6X6X6X6X6X6X6X6X6X6X6X6X6X6X6X6X6X6X6X6X6X6X6X6X6X6X6X6X6X6X6X6X6X6X6X6X6X6X6X6X6X6X6X6X6X6X6X6X6X6X6X6X6X6X6X6X6X6X6X6X6X6X",
"6X6X6X6X6X6X6X6X6X6X6X6X6X6X6X6X6X6X6X6X6X6X6X6X6X6X6X6X6X6X6X6X6X6X6X6X6X6X6X6X6X6X6X6X6X6X6X6X6X6X6X6X6X6X6X6X6X6X6X6X6X6X6X6X",
"6X6X6X6X6X6X6X6X6X6X6X6X6X6X6X6X6X6X6X6X6X6X6X6X6X6X6X6X6X6X6X6X6X6X6X6X6X6X6X6X6X6X6X6X6X6X6X6X6X6X6X6X6X6X6X6X6X6X6X6X6X6X6X6X",
"6X6X6X6X6X6X6X6X6X6X6X6X6X6X6X6X6X6X6X6X2X{.{.{.{.{.{.{.}.{.{.{.{.,X6X6X6X6X6X6X6X6X6X6X6X6X6X6X6X6X6X6X6X6X6X6X6X6X6X6X6X6X6X6X",
"6X6X6X6X6X6X6X6X6X6X6X6X6X6X6X6X6X6X6X6X].k k k k k k k k k k k k !.6X6X6X6X6X6X6X6X6X6X6X6X6X6X6X6X6X6X6X6X6X6X6X6X6X6X6X6X6X6X",
"6X6X6X6X6X6X6X6X6X6X6X6X6X6X6X6X6X6X3X,X!.. o . . . . . . . .     X.,X,X,X,X,X,X5X6X6X6X6X6X6X6X6X6X6X6X6X6X6X6X6X6X6X6X6X6X6X6X",
"6X6X6X6X6X6X6X6X6X6X6X6X6X6X6X6X6X6X/.| l , , , , , 6 , , , , X   - | | ....| | 3X6X6X6X6X6X6X6X6X6X6X6X6X6X6X6X6X6X6X6X6X6X6X6X",
"6X6X6X6X6X6X6X6X6X6X6X6X6X6X6X6X5X4X*.O + 8 8 8 8 8 8 8 8 8 8 %                 >X4X5X6X6X6X6X6X6X6X6X6X6X6X6X6X6X6X6X6X6X6X6X6X",
"6X6X6X6X6X6X6X6X6X6X6X6X6X6X6X6X!.o.l , 5 8 8 a a a a a a 8 8 6 , > , , > , , > ..o.>X6X6X6X6X6X6X6X6X6X6X6X6X6X6X6X6X6X6X6X6X6X",
"6X6X6X6X6X6X6X6X6X6X6X6X6X6X6X6X .O * 5 6 8 q C C C C C f q 8 8 8 8 5 8 5 7 5 8 + O ].6X6X6X6X6X6X6X6X6X6X6X6X6X6X6X6X6X6X6X6X6X",
"6X6X6X6X6X6X6X6X6X6X6X6X6X6X6X6X .  * 8 8 q a C C C C C C q 8 8 q q q q q a 8 5 * * X.*.}.6X6X6X6X6X6X6X6X6X6X6X6X6X6X6X6X6X6X6X",
"6X6X6X6X6X6X6X6X6X6X6X6X6X6X6X6X .  % 8 q C C C C C C C C q 8 q C f C C C C 8 8 7 5 - $ ^.6X6X6X6X6X6X6X6X6X6X6X6X6X6X6X6X6X6X6X",
"6X6X6X6X6X6X6X6X6X6X6X6X6X6X/.~.l + 5 5 0 C C C C C C C C w 8 q C C C C C C 0 a 8 5 +   !.6X6X6X6X6X6X6X6X6X6X6X6X6X6X6X6X6X6X6X",
"6X6X6X6X6X6X6X6X6X6X6X6X6X6Xk u 5 5 5 5 0 C C C C C C C f 0 8 q C C C C C C f f 0 8 +   !.6X6X6X6X6X6X6X6X6X6X6X6X6X6X6X6X6X6X6X",
"6X6X6X6X6X6X6X6X6X6X6X6X6X6Xu   , 5 8 0 a C C C C C C C C 0 y q C C C C C C C C a p = + O.'.:X6X6X6X6X6X6X6X6X6X6X6X6X6X6X6X6X6X",
"6X6X6X6X6X6X6X6X6X6X6X6X6X6Xu   , 8 q B C C C C C C C C C q 8 q C C C C C C C C C B 5 1 p i ;.6X6X6X6X6X6X6X6X6X6X6X6X6X6X6X6X6X",
"6X6X6X6X6X6X6X6X6X6X6X5X{.{.u X 6 8 q C C C C C C C C f a 0 8 q C C C C C C C C C C q 0 , + X.:X>X6X6X6X6X6X6X6X6X6X6X6X6X6X6X6X",
"6X6X6X6X6X6X6X6X6X6X6X4Xk k 1 1 < 8 a C C C C C C C C 0 8 7 8 0 8 q C C C C C C C C f a q p s C =.6X6X6X6X6X6X6X6X6X6X6X6X6X6X6X",
"6X6X6X6X6X6X6X6X6X6X6X3X    , u 7 7 a C C a C C f f f Z Z Z Z q 8 0 C C f C C f C C C C a s ,   j 6X6X6X6X6X6X6X6X6X6X6X6X6X6X6X",
"6X6X6X6X6X6X6X6X6X6X6X3X    + $ 1 5 q C a q q q q q w w.d.d.s.) 0 8 0 q q 0 q q C C C C 8 ; +   j 6X6X6X6X6X6X6X6X6X6X6X6X6X6X6X",
"6X6X6X6X6X6X6X6X6X6X6X3XO o     , 8 q C a 8 8 a q 8 8 A.T.T.OXe.w 8 8 8 q q 7 8 a C C C ,   O o } 6X6X6X6X6X6X6X6X6X6X6X6X6X6X6X",
"6X6X6X6X6X6X6X6X6X6X6X5X!.!.;   , 5 0 a 0 8 Z w.e.7 w @.t.S.OXZ.w.` 8 Z w.e.8 8 q w C C *   h !.(.6X6X6X6X6X6X6X6X6X6X6X6X6X6X6X",
"6X6X6X6X6X6X6X6X6X6X6X6X5X5Xu   , 5 5 8 8 8 ( T.K.8 8 w w N.R.oXT.d.w Q U.U.9 8 8 8 f C ,   O.5X5X6X6X6X6X6X6X6X6X6X6X6X6X6X6X6X",
"6X6X6X6X6X6X6X6X6X6X6X6X6X6Xu   $ * 5 8 0 0 ) R.U.7.7.7.7.A.R.R.R.C.4.d.R.T.7.7.C 8 q q 1 $ T /.].6X6X6X6X6X6X6X6X6X6X6X6X6X6X6X",
"6X6X6X6X6X6X6X6X6X6X6X6X6X6Xu     O = 8 q C ' OXR.K.L.K.K.T.R.R.R.T.K.L.OXR.K.K.A 7 8 8 5 5 < -  .6X6X6X6X6X6X6X6X6X6X6X6X6X6X6X",
"6X6X6X6X6X6X6X6X6X6X6X6X6X6X*.O.-   * 7 A 4.u.OXT.s.s.U.R.oXR.R.R.S.s.g.R.OXR.OXA q Q _ Z * $   j 6X6X6X6X6X6X6X6X6X6X6X6X6X6X6X",
"6X6X6X6X6X6X6X6X6X6X6X6X6X6X,X>Xk   * 8 ' B.F.OXU.8 9 S.OXR.R.R.OXf.0 ( R.R.OXOXQ z i.B.) . O   j 6X6X6X6X6X6X6X6X6X6X6X6X6X6X6X",
"6X6X6X6X6X6X6X6X6X6X6X6X6X6X6X6X..  $ , _ G.H.R.U.C V K.R.R.R.R.T.g.C ` OXOXOXOXW z g.H._   - | *.6X6X6X6X6X6X6X6X6X6X6X6X6X6X6X",
"6X6X6X6X6X6X6X6X6X6X6X6X6X6X6X6X..  . + ' H.H.OXT.g.g.T.R.R.R.R.R.K.g.Z.OXOXR.OXQ B j.H._   | {.>X6X6X6X6X6X6X6X6X6X6X6X6X6X6X6X",
"6X6X6X6X6X6X6X6X6X6X6X6X6X6X6X6X*.j ; . D H.H.OXoXoXoXA.C.C.C.C.C.S.OXR.OXOXR.R.8.) a.B.W   O.6X6X6X6X6X6X6X6X6X6X6X6X6X6X6X6X6X",
"6X6X6X6X6X6X6X6X6X6X6X6X6X6X6X6X:X'. .  D H.H.OXOXoXOX` S S S S S t.OXR.R.R.R.R.Z.g.q.4.q   &.6X6X6X6X6X6X6X6X6X6X6X6X6X6X6X6X6X",
"6X6X6X6X6X6X6X6X6X6X6X6X6X6X6X6X6X6X-.  D H.H.E.R.R.oXB > % * * > @.OXR.R.R.R.R.R.R.@.a p - -.6X6X6X6X6X6X6X6X6X6X6X6X6X6X6X6X6X",
"6X6X6X6X6X6X6X6X6X6X6X6X6X6X6X6X6X6X-.  D H.G.Y.Y.R.R.s.q.q.r.r.r.b.R.R.R.R.R.R.R.oX) * +./.{.6X6X6X6X6X6X6X6X6X6X6X6X6X6X6X6X6X",
"6X6X6X6X6X6X6X6X6X6X6X6X6X6X6X6X6X6X-.  D P.J.H.G.R.T.R.OXoXR.R.oXOXR.R.R.R.R.R.T.+XA   !.6X6X6X6X6X6X6X6X6X6X6X6X6X6X6X6X6X6X6X",
"6X6X6X6X6X6X6X6X6X6X6X6X6X6X6X6X6X6X-.  9 4.0.H.G.Y.Y.Y.Y.Y.Y.E.Y.E.R.R.R.R.R.R.t.8.<   !.6X6X6X6X6X6X6X6X6X6X6X6X6X6X6X6X6X6X6X",
"6X6X6X6X6X6X6X6X6X6X6X6X6X6X6X6X6X6X-.    @ V H.G.G.G.G.H.G.G.H.G.Y.R.OXR.OXOXOX9 +     !.6X6X6X6X6X6X6X6X6X6X6X6X6X6X6X6X6X6X6X",
"6X6X6X6X6X6X6X6X6X6X6X6X6X6X6X6X6X6X].*.*.*.:.5.9.5.9.0.0.0.0.5.9.9.q.t.q.q.t.t.p = o   !.6X6X6X6X6X6X6X6X6X6X6X6X6X6X6X6X6X6X6X",
"6X6X6X6X6X6X6X6X6X6X6X6X6X6X6X6X6X6X4X<X<X<X[.> : : > > > > > % : : > > = * * > y d #   !.6X6X6X6X6X6X6X6X6X6X6X6X6X6X6X6X6X6X6X",
"6X6X6X6X6X6X6X6X6X6X6X6X6X6X6X6X6X6X6X6X3X>X).# # # $ # o 3 3 & # # $ # # & # $ G K 3 # *.:X<X6X6X6X6X6X6X6X6X6X6X6X6X6X6X6X6X6X",
"6X6X6X6X6X6X6X6X6X6X6X6X6X6X6X6X6X6X6X6X}...k r r G G y r Y ] J e y K G G G H H L L G r l | !.6X6X6X6X6X6X6X6X6X6X6X6X6X6X6X6X6X",
"6X6X6X6X6X6X6X6X6X6X6X6X6X6X6X6X6X6X3X,X^.p p t d U U R [ k.l.k.[ R U U U U K K #.#.Y H 3   O.6X6X6X6X6X6X6X6X6X6X6X6X6X6X6X6X6X",
"6X6X6X6X6X6X6X6X6X6X6X6X6X6X6X6X6X6X'.&.:.v.$.= = x x m.M.V.z.M._.x.m m I m 3 = v._.[ H 3   O.6X6X6X6X6X6X6X6X6X6X6X6X6X6X6X6X6X",
"6X6X6X6X6X6X6X6X6X6X6X6X6X6X6X6X6X6X-.  @.*X`.  X v c #X-XQ.W.%X1X.Xn N >.>.    &X1X$.H 6 X +.2X3X6X6X6X6X6X6X6X6X6X6X6X6X6X6X6X",
"6X6X6X6X6X6X6X6X6X6X6X6X6X6X6X6X6X6X-.  @.@XZ.O . n c #X-X%X$X*X1X.Xc N >.M     XX*X%.J e 3 P ;./.6X6X6X6X6X6X6X6X6X6X6X6X6X6X6X",
"6X6X6X6X6X6X6X6X6X6X6X6X6X6X6X6X6X6X;.$ ) P.p.  . n c @X*X-X-X1X1Xn.c v >.M .   Z.U.{ H H H 4   k 6X6X6X6X6X6X6X6X6X6X6X6X6X6X6X",
"6X6X6X6X6X6X6X6X6X6X6X6X6X6X6X6X6X6X].*.:.7.' . @ n b m.I. X`.`. Xs.c v >.v .   y.c.E H G G 4   j 6X6X6X6X6X6X6X6X6X6X6X6X6X6X6X",
"6X6X6X6X6X6X6X6X6X6X6X6X6X6X6X6X6X6X6X5X).X O   . b c F ~ ~ ! ! ' I v v >.>..   t H t e e e 3 O k 6X6X6X6X6X6X6X6X6X6X6X6X6X6X6X",
"6X6X6X6X6X6X6X6X6X6X6X6X6X6X6X6X6X6X6X6X{.o.} O X M M / ^ 1.1.^ ^ / ,.>.2.M     e G e e 4 3 g o.;.6X6X6X6X6X6X6X6X6X6X6X6X6X6X6X",
"6X6X6X6X6X6X6X6X6X6X6X6X6X6X6X6X6X6X6X6X5X4X}.  @ 1.2.2.2.5.5.3.2.3.5.5.5.3.    e e e e 3 O +.4X5X6X6X6X6X6X6X6X6X6X6X6X6X6X6X6X",
"6X6X6X6X6X6X6X6X6X6X6X6X6X6X6X6X6X6X6X6X6X6X:X  @ 6.6.D F W ~ F F F ! 1.a.u.    & 3 4 3 g ..~.6X6X6X6X6X6X6X6X6X6X6X6X6X6X6X6X6X",
"6X6X6X6X6X6X6X6X6X6X6X6X6X6X6X6X6X6X6X6X6X6X:X  @ F.F.9 % % % % % % % V L.S.      X X X -.,X3X6X6X6X6X6X6X6X6X6X6X6X6X6X6X6X6X6X",
"6X6X6X6X6X6X6X6X6X6X6X6X6X6X6X6X6X6X6X6X6X6X{.  @ j.j.>   p k k k u . 2 n.b.    h k k k (.6X6X6X6X6X6X6X6X6X6X6X6X6X6X6X6X6X6X6X",
"6X6X6X6X6X6X6X6X6X6X6X6X6X6X6X6X6X6X6X6X6X6X:X  O V B .   !.{.{.{.-.  + V B     (.{.{.}.2X6X6X6X6X6X6X6X6X6X6X6X6X6X6X6X6X6X6X6X",
"6X6X6X6X6X6X6X6X6X6X6X6X6X6X6X6X6X6X6X6X6X6X>Xi i i i i i {.6X6X6X].i i i i i i <X6X6X6X6X6X6X6X6X6X6X6X6X6X6X6X6X6X6X6X6X6X6X6X",
"6X6X6X6X6X6X6X6X6X6X6X6X6X6X6X6X6X6X6X6X6X6X4X(.(.(.(.(.(.2X6X6X6X,X(.(.(.(.(.(.4X6X6X6X6X6X6X6X6X6X6X6X6X6X6X6X6X6X6X6X6X6X6X6X",
"6X6X6X6X6X6X6X6X6X6X6X6X6X6X6X6X6X6X6X6X6X6X6X6X6X6X6X6X6X6X6X6X6X6X6X6X6X6X6X6X6X6X6X6X6X6X6X6X6X6X6X6X6X6X6X6X6X6X6X6X6X6X6X6X",
"6X6X6X6X6X6X6X6X6X6X6X6X6X6X6X6X6X6X6X6X6X6X6X6X6X6X6X6X6X6X6X6X6X6X6X6X6X6X6X6X6X6X6X6X6X6X6X6X6X6X6X6X6X6X6X6X6X6X6X6X6X6X6X6X",
"6X6X6X6X6X6X6X6X6X6X6X6X6X6X6X6X6X6X6X6X6X6X6X6X6X6X6X6X6X6X6X6X6X6X6X6X6X6X6X6X6X6X6X6X6X6X6X6X6X6X6X6X6X6X6X6X6X6X6X6X6X6X6X6X",
"6X6X6X6X6X6X6X6X6X6X6X6X6X6X6X6X6X6X6X6X6X6X6X6X6X6X6X6X6X6X6X6X6X6X6X6X6X6X6X6X6X6X6X6X6X6X6X6X6X6X6X6X6X6X6X6X6X6X6X6X6X6X6X6X",
"6X6X6X6X6X6X6X6X6X6X6X6X6X6X6X6X6X6X6X6X6X6X6X6X6X6X6X6X6X6X6X6X6X6X6X6X6X6X6X6X6X6X6X6X6X6X6X6X6X6X6X6X6X6X6X6X6X6X6X6X6X6X6X6X"
};
