/* XPM */
static char *result[] = {
/* columns rows colors chars-per-pixel */
"64 64 250 2 ",
"   c #45000B",
".  c #4A000B",
"X  c #54000D",
"o  c #5B000E",
"O  c #62000F",
"+  c #640A0E",
"@  c #650010",
"#  c #6B0011",
"$  c #6E0910",
"%  c #730012",
"&  c #7C0013",
"*  c #7B0A12",
"=  c #7F1411",
"-  c #79200E",
";  c #840014",
":  c #8B0115",
">  c #840B13",
",  c #8C0B14",
"<  c #8A0A1C",
"1  c #930117",
"2  c #990217",
"3  c #940B15",
"4  c #9A0B16",
"5  c #9B0018",
"6  c #930C1B",
"7  c #851212",
"8  c #8C1413",
"9  c #8C1B12",
"0  c #941414",
"q  c #9A1515",
"w  c #941B13",
"e  c #9A1B14",
"r  c #951A19",
"t  c #A30C1A",
"y  c #A10918",
"u  c #A21216",
"i  c #A41B17",
"p  c #B21D18",
"a  c #952412",
"s  c #9B2312",
"d  c #9D2B12",
"f  c #9A281D",
"g  c #9D3513",
"h  c #912D11",
"j  c #A32514",
"k  c #A32B13",
"l  c #AA2C15",
"z  c #A82317",
"x  c #B42816",
"c  c #A53411",
"v  c #AA3413",
"b  c #A53B11",
"n  c #AD3B12",
"m  c #B53815",
"M  c #8E1020",
"N  c #961823",
"B  c #9A2629",
"V  c #9C2D34",
"C  c #8F2620",
"Z  c #B33328",
"A  c #A83331",
"S  c #A11825",
"D  c #C53219",
"F  c #AB450F",
"G  c #AC4C0E",
"H  c #A4440E",
"J  c #B14E0F",
"K  c #B3530F",
"L  c #B65C0E",
"P  c #BC5E0E",
"I  c #B8570F",
"U  c #AE4412",
"Y  c #AC4915",
"T  c #B34411",
"R  c #B44A11",
"E  c #BA4816",
"W  c #BC5312",
"Q  c #B75917",
"!  c #AD5113",
"~  c #BB650D",
"^  c #BE6B0C",
"/  c #B6650C",
"(  c #BF710D",
")  c #BC6717",
"_  c #AC4424",
"`  c #B9492C",
"'  c #B65B26",
"]  c #AA4438",
"[  c #B44838",
"{  c #B8593D",
"}  c #BB6A29",
"|  c #B66336",
" . c #9D400E",
".. c #C54C17",
"X. c #C85A12",
"o. c #D05614",
"O. c #C36B0D",
"+. c #C8680E",
"@. c #C4730D",
"#. c #CC730E",
"$. c #C57A0B",
"%. c #CC7D0D",
"&. c #D27B0E",
"*. c #D6780F",
"=. c #C86712",
"-. c #D56716",
";. c #C87615",
":. c #D97911",
">. c #D06B0F",
",. c #E57B14",
"<. c #F67D15",
"1. c #CC4929",
"2. c #C67924",
"3. c #C56D39",
"4. c #C87836",
"5. c #D57126",
"6. c #E27927",
"7. c #E15C16",
"8. c #B1574C",
"9. c #B96853",
"0. c #BF7863",
"q. c #CA7A50",
"w. c #CC830B",
"e. c #CD8A0B",
"r. c #C7810A",
"t. c #D28C0B",
"y. c #DB8E0D",
"u. c #D7830D",
"i. c #D3930A",
"p. c #DA930B",
"a. c #D89B0A",
"s. c #CD8816",
"d. c #D38C13",
"f. c #D88B12",
"g. c #D29314",
"h. c #D79614",
"j. c #CF9112",
"k. c #E6880F",
"l. c #E5940D",
"z. c #E59D0C",
"x. c #ED980D",
"c. c #F49D0E",
"v. c #E98712",
"b. c #E69815",
"n. c #F69414",
"m. c #F68B17",
"M. c #DCA708",
"N. c #DFB109",
"B. c #DBA515",
"V. c #DEB013",
"C. c #E1AE07",
"Z. c #E3A509",
"A. c #E2AA0A",
"S. c #EBAB0A",
"D. c #EBA20B",
"F. c #F3AD0B",
"G. c #F6A70D",
"H. c #EABB06",
"J. c #E4B30A",
"K. c #EDB40A",
"L. c #EEBC09",
"P. c #E5BA07",
"I. c #F4B40A",
"U. c #F8B90A",
"Y. c #E7A616",
"T. c #F4A716",
"R. c #E7BA15",
"E. c #F4B112",
"W. c #F5B916",
"Q. c #CA8527",
"!. c #D68D28",
"~. c #D69825",
"^. c #D19135",
"/. c #EB952D",
"(. c #DAA827",
"). c #DEB32F",
"_. c #DAA736",
"`. c #DEB336",
"'. c #E8A925",
"]. c #F4A925",
"[. c #E9B928",
"{. c #F6B72C",
"}. c #F6AC33",
"|. c #E3BA37",
" X c #F3B738",
".X c #E8A73B",
"XX c #ECC205",
"oX c #EDC809",
"OX c #FAC309",
"+X c #F6C907",
"@X c #EFD206",
"#X c #F3D304",
"$X c #FCDD0B",
"%X c #F9D807",
"&X c #EBC714",
"*X c #F5C817",
"=X c #EED21A",
"-X c #F6D718",
";X c #FBE303",
":X c #FFEC03",
">X c #F9E40C",
",X c #FAE609",
"<X c #FFF101",
"1X c #FEF109",
"2X c #FCEC1B",
"3X c #FAE519",
"4X c #FCF01F",
"5X c #EBC828",
"6X c #F5CA25",
"7X c #F4DA24",
"8X c #F5D729",
"9X c #E9C736",
"0X c #F4C635",
"qX c #EED63B",
"wX c #F6D836",
"eX c #EED126",
"rX c #FAE727",
"tX c #F8E63A",
"yX c #FCF020",
"uX c #CB8459",
"iX c #D18B49",
"pX c #DBA956",
"aX c #E7B74A",
"sX c #E2BA55",
"dX c #EFAC4C",
"fX c #CE9468",
"gX c #CC8C66",
"hX c #DAAE64",
"jX c #DBB072",
"kX c #E9B56D",
"lX c #EA8F56",
"zX c #E9C744",
"xX c #F5C747",
"cX c #EED74B",
"vX c #F2DB4C",
"bX c #F4D545",
"nX c #E9C756",
"mX c #EDD555",
"MX c #F4DA59",
"NX c #F4CF5A",
"BX c #F7E546",
"VX c #F6E757",
"CX c #E9C869",
"ZX c #EED577",
"AX c #F1D566",
"SX c #F3E568",
"DX c #F4E575",
"FX c #E6B485",
"GX c #ECD480",
"HX c #F0CF82",
/* pixels */
". .     . . . . . . . @ -.VXd.& . . .   . . . .   . . . . .   . X l xX8X0 o .   .   .   .   .   . . .   . . & }.BXT # . . . .   ",
"X o X o X o . . . . . 1 f.yXO.%   . . .   X X X X o X X . . . . % T 3XJ.> .   . . . . o o X o X X . . . . X 1 $X-Xc o . .   .   ",
"@ & & & # o O o . X O w -Xs.6 o . . . . O * % * & # o O o X . O & B.&Xe # .   . . o & O & & & O O O X . O # K 2XF & X   . . X # ",
"X.;.-.Y 3 : : @ X @ * s.GXE & X X . X o 0 D e.1.=.4 : 1 # o X & I AX3., o o X . X , x %.-.2.j : 1 & o . % a |.jXi O X X X X % i ",
"=.-. X-XiX8.: 2 @ % K :X$XU.i.I , & o l I.>.>./.tXb.0.M 2 & @ 3 :X,XF.N.;.w ; O & Y.:.+.,.vXW.q.V : : o 1 M.<XE.XXw.v : # # O.G.",
"X & 0 P Y.FX| 1 # 6 R.>XO.w.=.+Xz.a O ` oXO # 3 c h.dXfX3 & & ^ rXM.+.t.z.U.W # : rXh O : 0 $.}.jXd : # w rX:Xm i.*.%X*.* % _.%.",
"X o @ & u b.9X8.; k eX=Xu % & c *.J.l @.R @ X O % , X.6X0.< 3 i.tXT ; % s W H.P l w.> X o # & m {.pXB ; R tXa.1 # , T z.t.l y.e ",
"  . X o # i !.0XM.iX2XK % X o % 4 y.m.;Xa . . X o @ < =. X&X} BXi.> o o O 2 P m.$X/ @ . . o O % m ].=X%.CX@Xd O X O : j D.E.P.& ",
".   . X o # : M.U.VX/.4 # . . X O j 3X..O .   . X o O ; ~ U.yXkXm & . . X o : J.~.& . .   . X o & s U.:XGX7.: X   . o % ^ 5Xe o ",
"        . o # 1 G 8Xf ; o . . o X a A.4 X .       . X o 1 s W.4.: O . . X X $ a.z # .       . X X ; , t.9X: % X . . o O ~ =.; . ",
"          o % 3 i.U.k % . . . o # @.1.: . .   .     X o 1 L F.w.; o . . o @ b v.5 o .   .     . o ; d Z.OX: # . . X O * l.p # . ",
"  .     X o # c 1X;.* o .   o ; c bX#.% . .   .   . o O , R.XX0 o . . X % 6 (.|.; . .     . . X o ; ;.1Xc # X . . O 1 ^ vXc O . ",
"X . . . o O k -XBXs o   o @ & : J.6.; # . o X . . X o , N.BX^ % . X o # : ^ W.S :   X X . X . o & +.tXV., X . o O ; a -X1.; X X ",
"% % # o o : 5.[.l o % % % ; v a.qXh o @ % % % % o o & n  X=.% @ # # ; , &.7X} @ o % & % % O o # r .XA., O % # & : P R._.& o # & ",
"m u 1 % > 1 hX~.: g ~ L =.XXI.rXg.& @ 1 W D l 1 ; % 2 9.zXa 8 / X.~ Z.z.rX&Xa @ : v ..R y : # 1 B AXK ; G ~ P w.K.*X3XQ # & 6 =.",
"wXCX) T ` } *XD.i.wXBX<XR.(.$.C , # s R.n.-XZX~.U E [ R.OX*.=XVX:X#X_.M.f 9 % > y.'.OXMXsXF T [ B.*X*.H.VXrX:X(.V.Y a ; # W [.U.",
"E `.>X-XDXyXOXD.T U $.m.p.w 1 ; ; k K.kX' n s.eX;XMXVX%XOXW F F G.v.F 1 ; ; 3 e.zXq.U Q 9X<X8XSX3XOX>.U U Z.<.@.: : ; : I [.jXF ",
"; : F m P P P e & # e aXBXJ.Q.iX%.9Xq.; # & ; j R R ~ X.v & # ; _.mX=Xs.uX&.(.sX1 % # : 3 I m ~ X.K ; % % Q nXtXt.^.!.w.NXA & # ",
"X @ % & % O O o . o @ y I j.u.%Xc.^.; o o o o % & % # O X X X X 5 l e.=.%XG.'.B O o o o # % % # @ o o . o & 5 e.#.F.+XT.{ % X o ",
"  . o o o X . .   X o % , ~.,Xn.n $ X . .   . X X o X X . . X o # : Q 3XG.>.7 X . .     X o X X X . . . o o ; s 5X+Xk.w O . . . ",
".     .     . .   X o o d.MXa.e O . .     .     .       .   . o X H vX*Xc % X . .   . .     .   .       o o # qX8X~ , o .     . ",
". .   .   . .     . . % f.0XA.> o .   . .   .   . .   . . . . . O T wXOXd # . . .     . .     .   .   . . X ; 8X6X^ & . . . .   ",
"X . . X X .   . . .   & -.VXh.& . . .   . . X . X . X .   . .   O x xX7X3 .   . .     X . X . X .   .   . . : {.tXR O .   . .   ",
"o # # # o X o o   . o q XXH.0 @ . . . . X # O # # O X o o . . X * r.#Xn # X . .   X # X % # # o o o X . X @ k <X#.; X . . . . o ",
"j c l w : ; & @ . # & ! SXE & X . . . X ; u b z k 1 ; ; @ X X & s zX^.: o . . . . & 5 b l c 1 ; : % o . & > s.CXq # X   . X O 1 ",
"z.F.xX5X' B : : o # b >X8Xz.Y a & O o 0 p.k.K.}.qX;.A : : # o : @XrXY.^ g & % o % #.v.S.T.MXY.] M : & X & w.2X[.t.b 8 % O O b l.",
"# 2 T M. XFXV 1 # , g.<Xi.H.F.L.#.> X ` *X& ; x r.W.GX8.: ; % T 1XXXl.#XI.i.k O & 8Xk & u L S.NXgX6 : # q @X:X>.#XF.C.W % @ _.:.",
"X O % : m }.|.N & 6 9X-Xx , , @.k.e.3 W w.# o # ; i 6.qX] ; : @.VX+.3 > K u.z.j 3 N.9 X % & , ..xXQ., & d VXR.y > s t.x.R 3 y.R ",
". X X O & T /.nX/ 3.2Xe.& o O ; z H.v.%Xs X . X o # q k.CX2.Y wXP.w # X % y t.c.I.@.# . X o O ; =.dX_.U .X>XK # X # 1 R L.x.H.; ",
"  . . X o & j J.%XnX{.r # . . O % v 6Xf.$ .   . X o # r &.%XeXNXI & . . o # , Y.5X9 X     X o O , R $X#XHXl., X . X O ; +.8XI o ",
".       X O % v %.bXZ : o .   o O d +Xu X . .   . . o @ i W -XuX2 # X . X X ; M.E #       . . o O > m H.CXt * X . . o # / y.: . ",
"        . X % 1 F U.k ; X   . X o H o.: X .         X o 1 s l.w.: o . . X o - :.2 O .         . o ; : #.XX: % .   X o @ #.x & . ",
"  . .   . o # e <Xa.8 O X . X % 0 9Xs.& . . .   . . o o : J.@Xb O X . . # ; 2.=X: X   . .   . X o & ~ :X@.% o . . @ & b wXm O . ",
". . . . o @ 0 B.tXG # . X X # : i..X0 # . X .   . X X ; $.BXa.& . X o O ; J 6X[ ; . X . . . . o % H qX-Xq X . X o & 0 oXq., X X ",
"@ @ o X o & E *X;.# O o O & q W =XT # # @ @ @ @ X o # i ].~.9 @ o o & : b &Xd.; # o # O O o X O 3 6.&Xb @ @ o # & k w.&X0 # O # ",
"4 2 : @ % 1 hX9X1 * 0 0 j w.u.1X[.& o & u 4 4 1 % @ 1 | VXb % 9 q e O.=.$X3XA o % 4 u 4 2 & o ; f DX$.; 7 e 0 T #.K.3X4.% O : i ",
" XiXb 6 t n eXp.I |.bX;X%X7XN.| s @ , %.v.W.hXP 6 4 i (.&XW g.MX%X%X8X#X} Y % % X.f.U.nX4.0 q t ;.7XX.r.cX=X;X8X>Xs.} , # d f.G.",
"s.MX3X$XZXtXE.G.e.j.V.G.*.r 3 % & 0 i.AX!.e.|.tX%XcXZXOXU.*.i.j.OXv.g q & % ; K 8XpXe.~.VX%X8XZX7XF.,.t.g.XXn.R 0 ; % ; d R.CXe.",
"1 v e.:._.M.A.W : ; b  XwXO.Y ] Y Q.'.A < ; e =.y.!.V.Z.&.q ; : [.0XB.U ] Y )  X` N ; 4 G M.5.(.A.a.j : & ;. XeXK ] _ K `.5.V ; ",
"o % ; ; ; & % # . o & A _.#X].8XG.nXV # X o @ : : ; & & # o . O S 3.=Xn.wXT.0X9.% X o O ; ; ; ; & # O . o M [ 6XK.{.6XT.fXM @ X ",
". X o o o X X . . X X & : K J.G.w.a o X X   X o o o X X X . X X % : s a.G.C.F # X . . X o o o o X X . X o o ; : r.K.I.~ * X X X ",
"  .   . . . . .   X O # ) vXR.K % X       .     . . . . .   . o @ g zX8X@., o .     .       .   . .     o o & ).BXi.k # .     . ",
". .   . .   .     . X & B.}.S.0 o . .   . . .   .     .     . X # U wXU.b % .   .   .   .   .     .     X o ; tXT.%.; .   .     ",
". .   . . . . . . .   # 1.DXh.; . . . .   . .   . . . . . .   . X p NXqX3 X . . . . . . . . . . .     . . . ; /.VXE # . . . .   ",
"o o O o o o X X . . X 1 M.;XU # . . . . . o o o o o o o X .   X & I :Xr.% .       . X o O O o o o X . . . O 4 <XP.9 X     . . . ",
"% : ; : & # # o . # # a tX) ; o     . . % ; & : ; ; # % o X X % & [.).1 # .   .   # ; # : ; ; % % @ X . & # ^ tXs & X   . . X & ",
"D.L..XQ.j : 1 % X O 9 &XMX;., # @ X X % I ,.oX/._.Y : 1 ; o X & a.BX!.d # # o X # g -.XXT.aX@.8 : ; # X # K eXaXT % # O X O 7 >.",
"d x !.&XdXfXM 1 # ; @.<XP.OXH.y.b ; X n *Xk l -.R.{.jXV 1 & # i <X%XS.#XD.K 0 o & *XX.j D (.U.kX8.: 1 O 3 P.<Xx.%XS.+.k # O !.k.",
"X # ; d >.kX^.3 % , 5X-XE H l C.x.K & ` J.O O ; 8 W /.sXf * ; ^ tXi.l H &.F.#., 1 =X9 o % ; H 6.kXQ : & s BX%Xi H E XXk.s ; ~.@.",
". o o # ; w.}.fXs E 7XJ.: # # : W +XX.Z.s O X X # & U E.jXA s R.7Xs & # & j J.y.>.^ % X X @ % w S.sX{ r ;.rX( ; O & 4 w.H.X.a.: ",
"    X o o : ..oX<XhXrXs # . X # : K ].oX= . . . o o & n l.:X'.SXO.& X . o ; d v.2X .X . . X O @ q &.:XXXHXJ.3 X . o % , :.6Xi.# ",
".     . o @ * +.D.MX1.1 @ .   X @ z $Xx X . .   . X o % U :.2XgXu % . . X o : N.=.% . .   . . O % 9 &.%XHXD ; X . . o & ~ S.3 . ",
"        . o # 1 s -Xd ; X . . o . h d.: o         . X o 1 q Y.s.: O . . X X + i.4 @ .       . . o ; : O.&X: % . . . o . ~ T ; . ",
"  .       o % q #XS.d # . . X O > h.o.; . .   .     X o 1 i.+XO.% o . . O % Q T.2 X           . o ; G %XZ.; @ . . o # w W.x # . ",
"  . . . X O % P 4X+.% X X . o : ~ cXG # . . . .   X o % d eXXX: o . . X & k 9X^.; . . . . . . o # 8 (.1Xk @ . X . % 3 h.sXa o . ",
"X X X . o % x -X[.& o . X # : r XXo.; % X o o . . o o 4 F.9Xg # . . # ; : j.D.2 ; . o o . o . o ; >.8X) % X . @ % 1 Y #Xp ; o o ",
"; : & @ O : pX9X3 @ ; ; : U +.+X9X> X # : : ; : @ o ; ' MXR # % : ; k v OXrX_ o O : 1 ; : % o % f MXi.: # ; & q c p.>XiX# X & 1 ",
"6.` q ; 1 e aXd.d } (.N.J.>XL.).I # & n :.,.3.z ; : 5 ^.5Xc ! _.Z.C.-X+X).s.7 # j X.k.!.Z : ; 5 _ vXJ c ^.Y.N.W.$XR.(.d # 8 T l.",
"8XDX(.p.iX|.U.G.K.7XwX%Xg.' b % & * G wX'.*XSX9Xp.^.fXU.U.l.$XcX;XS.} K ; % & 9 &X X+XcXSXi.p.uX5XG.,.#XqX3X%X} Q w % & ; s.wXF.",
"6 ( oXE.MX>X%Xp.3 3 K n.I.b 6 6 3 W W.uXN 4 T N.OXxXrX%XH.j 3 , E.T.@.4 < 6 j R.iX] , i j.;X XvX;X+XW 4 , i.m.J.r 6 6 q d.'.9.3 ",
"% ; 6 4 0 r 8 & o o : q.nX,X}.zXF.mX8.& o @ % 3 q 0 8 0 > O X % { hX3XS.nXE.0XfX; O o % : 0 0 0 0 8 # X @ B uXtX+XaX0XT.CXB # X ",
". o @ # @ o o X . o o : d ~ a.+XZ.' # X X . o # @ @ o o X X o X ; q R #.OXU.2.= o X X X O # O O o X X X o # 1 n O.K.OXh.B O X X ",
"  . . X X . .     X o % k zX$X:.0 o .   .     . X X X . .   . o O 3 ^.rXz.m # X         . . X . . .     o o ; ) tXL.X.& X     . ",
"  .   .     .     X o # B.dXA.0 @ .   .   . .         . .   . o O G MXI.c % . . .   . . . .     . .   . o o % BXT.@.: X . .   . "
};
