/* XPM */
static char *result[] = {
/* columns rows colors chars-per-pixel */
"64 64 79 1 ",
"  c #030202",
". c #0B0202",
"X c #0F0A07",
"o c #0F0A08",
"O c #150304",
"+ c #180404",
"@ c #130E07",
"# c #1B0D07",
"$ c #130B08",
"% c #190C09",
"& c #141007",
"* c #15110A",
"= c #1C130D",
"- c #1F180B",
"; c #1E1910",
": c #231C0C",
"> c #242013",
", c #5B0708",
"< c #53090A",
"1 c #5A0809",
"2 c #610809",
"3 c #6F0D0D",
"4 c #760D0D",
"5 c #7C0D0E",
"6 c #7D0F10",
"7 c #7F1012",
"8 c #810D0D",
"9 c #800F11",
"0 c #85633F",
"q c #866241",
"w c #8E6B45",
"e c #8E6B48",
"r c #926B44",
"t c #916D48",
"y c #957044",
"u c #9E7447",
"i c #9D744B",
"p c #9F784B",
"a c #9D7550",
"s c #A27747",
"d c #A37A47",
"f c #A1774A",
"g c #A17949",
"h c #A7842D",
"j c #AA832D",
"k c #B98E2F",
"l c #BA902F",
"z c #AA8431",
"x c #B68E33",
"c c #B98E31",
"v c #AF993C",
"b c #B19637",
"n c #BB9133",
"m c #B19837",
"M c #B2963A",
"N c #B29839",
"B c #BEA43D",
"V c #C99B2F",
"C c #C59634",
"Z c #C69A33",
"A c #C99B32",
"S c #C29738",
"D c #C1A53C",
"F c #D0AF3E",
"G c #D2B33E",
"H c #B2A357",
"J c #B4A158",
"K c #BFB25E",
"L c #C1A640",
"P c #D2AE40",
"I c #CFB241",
"U c #D1B341",
"Y c #C1B15E",
"T c #D2BF5F",
"R c #C2B260",
"E c #D2BF62",
"W c #CFC165",
"Q c #D2C165",
"! c #D2C169",
/* pixels */
"8888888888888888888888888888888888888888888888888888888888888888",
"8888888888888888888888888888888888888888888888888888888888888888",
"8888888888888888888888888888888888888888888888888888888888888888",
"8888888888888888888888888888888888888888888888888888888888888888",
"8888888888888888888888888888888888888888888888888888888888888888",
"8888888888888888888888888888888888888888888888888888888888888888",
"8888888888888888888888888888888888888888888888888888888888888888",
"8888888888888888888888888888888888888888888888888888888888888888",
"8888888888888888888888888888888888888888888888888888888888888888",
"8888888888888888888888888888888888888888888888888888888888888888",
"8888888888888888888888888888888888888888888888888888888888888888",
"8888888888888888888888888888888888888888888888888888888888888888",
"8888888888888888888888888888888888888888888888888888888888888888",
"8888888888888888888888888889998888869886888888888888888888888888",
"8888888888888888888844553-&*****%***&***444455888888888888888888",
"88888888888888888896....*HYKYYYYKKKRYKRRX...+4988888888888888888",
"88888888888888844#&&UUUUUGGGQQQQTQQQGGUGUGGGD:&&4458888888888888",
"888888888888884+#bDDUGGGGGGGUUUUUUGUGGGGGGGGGDDD.O55888888888888",
"8888888888844#:DIUGGGGGGGGDGGDGGDGGGGGGGGGGGGGGGGI@%458888888888",
"88888888884O%hDGGGGGGGGGGU:DD:UG>DGGGGUGGGGGGGGGGGkk..5888888888",
"8888888854:kZAAGGGD:DGGGDU@bUU&ZD&GDGD:NGGGGGGDGGFZVZA#488888888",
"888888884OxCAAAFGGGL:DGU:D @UU&DD&D>D:N:GGGGGG:DGAVZAAj#58888888",
"888888854%dCVAk:DU&DD&*&DA:x$nj:lZ:h:mDGGGGGD&D:VAlkZZr=45888888",
"8888884O%qfCAAZc:D&DD*cl:ccZ@c:j:lj:j::lFGGGD&GVZZ@@AAut..588888",
"888885%eowirh:CVz:x@:cAAAAAAZZZAZVZAAZAAZVAAGU:j@@@cSfiioe.48888",
"888856$eXer=-jCZ:jk@cAAAAACAVZVAAAVZAAAAVZAVAAd:xx@cuiiaXw.48888",
"88884Oif-qiaXw@@AAZZAVCCCCsfiiiifiiiifsCCCCZAAAAk:Sfoo=q:kw$8888",
"88884.fCM=iiXrckAVAAAZffffiiiiiiiiiiiiifgufsZAAAZkCfwtq%DZro5888",
"88883%dCD>riiifSCCuutrtrqO..............eetttiiuCCiiiiq;UAr;4588",
"8888%0CVGD;riiifffiaooooO<,,11,,<,,,11,<$$@o=tiisgiiai:bGASrO588",
"8888XrCVUUD:;qtrq$..,222,222,222222222,222,21O .rrrt&&UGGACf.488",
"8888XwCVGGGDJ;oo%<11222222222222222222222222,111oXXXYDGGGACu.588",
"8888OrAAGGGGQ!Q!*<11222222222222222222222222211<>RQQQGGGGACg.488",
"8885orAAUGGGQQQQH=..2222222,2222222222222122<O..RQQQQUGGGACg.588",
"8888orAA>mGGUQQQQQQ!=***&1111111,<,<,<,,***=>RQ!QQQQGGGG&kCg.488",
"8885$eZZm:UGGUQQ!QQQYKYYH*..............RYYYYQQQQQQUGGGG@kCg.488",
"88884.gClB:DDBGD>YQQQQQQQQQ!!!Q!!!Q!EQ!!QQQQQQQQQQGG:m&DDZx@9888",
"88885.pS&&DG&@D:BUQQQQQQQQQQQQQQQQQQWQQQQQQQQQQQUUGGm:@D:cr$9888",
"888885$rAZAG:vo.>mGDDQQQQQQQQQQQQQQQQQQQQQTUGGDUDGGGD>GDSr+48888",
"888888$tCZAAb:m#v:D::LGUUUQQQQQQQQQQ!QQQUUUUUG:D>DGGGlAAr=588888",
"8888884OrCCZ:DGG:D:DD:N:N:DDUDUUDU:N:DN:D&&&:DD*:DGGVZVC0#888888",
"88888854:rAAkZAFDGDGGD>M>M&&D:UU:DN:LG:ND&DDDGD&DGGGAVCs%3888888",
"88888888$0CCVAACAADFD:M:IU:ZN:-M:DDU:DN:&$DDGG:DGGFAVASr+4888888",
"888888884#sSVAVAVAVVAc:MGUBF:NM:DU:DDG:NDD&@UGkAAAAAAAt=48888888",
"8888888885%0rCCCAVAVk:AZAFD:UG:DD:UGGFGGGGAZAAZVAACCrr+488888888",
"88888888884%=rdCCAAZAkAAAAVCAAcAAlAVAAAVAAVAVAZZAAff$$4588888888",
"8888888888855+%qyCCZAVAAAVAAAAAAAAAAAAAAAAAVZCACrwO.588888888888",
"888888888888843+:yfsZVZZAAAAAAAAAAAAAAAAAAZZZsfpo$46888888888888",
"88888888888888884O..rrrrrCCCCCCCCCCCCCCCrrrrq+.O5888888888888888",
"88888888888888888444$O$o=rfgffffffffsfff$oX$%3448889888888888888",
"8888888888888888888858584+......O.......585888888888888888888888",
"8888888888888888888888885445444444444544888888888888888888888888",
"8888888888888888888888888888888888888888888888888888888888888888",
"8888888888888888888888888888888888888888888888888888888888888888",
"8888888888888888888888888888888888888888888888888888888888888888",
"8888888888888888888888888888888888888888888888888888888888888888",
"8888888888888888888888888888888888888888888888888888888888888888",
"8888888888888888888888888888888888888888888888888888888888888888",
"8888888888888888888888888888888888888888888888888888888888888888",
"8888888888888888888888888888888888888888888888888888888888888888",
"8888888888888888888888888888888888888888888888888888888888888888",
"8888888888888888888888888888888888888888888888888888888888888888",
"8888888888888888888888888888888888888888888888888888888888888888",
"8888888888888888888888888888888888888888888888888888888888888888"
};
